<svg xmlns="http://www.w3.org/2000/svg" viewBox="0 0 1200 760" role="img" aria-labelledby="title desc"><title id="title">Predict the next play</title><desc id="desc">A stylised goalkeeper reading passing options under stadium lights.</desc><defs><linearGradient id="bg" x1="0" y1="0" x2="1" y2="1"><stop stop-color="#06110d"/><stop offset="1" stop-color="#0e2516"/></linearGradient><radialGradient id="glow"><stop stop-color="#d7ff2e" stop-opacity=".9"/><stop offset="1" stop-color="#d7ff2e" stop-opacity="0"/></radialGradient></defs><rect width="1200" height="760" fill="url(#bg)"/><ellipse cx="880" cy="340" rx="430" ry="290" fill="url(#glow)" opacity=".18"/><path d="M0 610 1200 430v330H0z" fill="#0a1a11"/><g stroke="#d7ff2e" stroke-width="10" fill="none" stroke-linecap="round" stroke-dasharray="26 20"><path d="M565 540Q760 385 1015 305"/><path d="M565 540Q750 525 1030 570"/></g><g fill="#d7ff2e"><path d="m1005 291 31 10-26 20z"/><path d="m1020 554 31 17-34 11z"/></g><circle cx="1030" cy="295" r="56" fill="#f7fff8" stroke="#d7ff2e" stroke-width="14"/><path d="m1030 252 28 20-10 34h-36l-10-34z" fill="#111"/><path d="M430 605c18-135 72-230 176-270 67-26 124-7 174 45l-73 63c-32-28-62-39-91-26-53 24-80 88-89 188z" fill="#111b16" stroke="#d7ff2e" stroke-width="8"/><circle cx="618" cy="307" r="54" fill="#8c5c3f"/><path d="M572 286q42-64 94-8-28-10-94 8" fill="#17120f"/><path d="M520 472q-74 20-130 84" stroke="#111b16" stroke-width="42" stroke-linecap="round"/><path d="M665 432q92-26 168-76" stroke="#111b16" stroke-width="42" stroke-linecap="round"/><circle cx="845" cy="350" r="20" fill="#d7ff2e"/><g fill="#d7ff2e" font-family="Arial, sans-serif" font-weight="900"><text x="66" y="94" font-size="34" letter-spacing="8">GAME INTELLIGENCE</text><text x="66" y="160" font-size="58">READ THE OPTIONS</text></g></svg>