<svg width="1800" height="1000" viewBox="0 0 1800 1000" xmlns="http://www.w3.org/2000/svg">
<defs><radialGradient id="sky" cx="50%" cy="0%" r="78%"><stop stop-color="#145232"/><stop offset=".45" stop-color="#061812"/><stop offset="1" stop-color="#020807"/></radialGradient><linearGradient id="pitch" x1="0" x2="0" y1="0" y2="1"><stop stop-color="#1f7b3e"/><stop offset=".7" stop-color="#0b351b"/><stop offset="1" stop-color="#04180d"/></linearGradient><filter id="blur"><feGaussianBlur stdDeviation="14"/></filter></defs>
<rect width="1800" height="1000" fill="url(#sky)"/>
<ellipse cx="900" cy="360" rx="800" ry="190" fill="#050b0a" opacity=".9"/>
<g opacity=".95" fill="#fff">
<circle cx="250" cy="260" r="6"/><circle cx="330" cy="242" r="7"/><circle cx="410" cy="228" r="7"/><circle cx="490" cy="220" r="6"/><circle cx="570" cy="218" r="5"/>
<circle cx="1230" cy="218" r="5"/><circle cx="1310" cy="220" r="6"/><circle cx="1390" cy="228" r="7"/><circle cx="1470" cy="242" r="7"/><circle cx="1550" cy="260" r="6"/>
</g>
<g filter="url(#blur)" opacity=".5"><path d="M260 260 L820 680 L650 700 Z" fill="#c9ff2e"/><path d="M1540 260 L980 680 L1150 700 Z" fill="#2dff95"/></g>
<path d="M0 610 Q900 500 1800 610 L1800 1000 L0 1000 Z" fill="url(#pitch)"/>
<g stroke="#c9ff2e" stroke-opacity=".22" fill="none">
<path d="M220 750 Q900 635 1580 750"/><path d="M470 670 Q900 610 1330 670"/><ellipse cx="900" cy="795" rx="190" ry="60"/><path d="M900 610 L900 1000"/><rect x="595" y="710" width="610" height="200" rx="100"/>
</g>
<g opacity=".25"><rect x="0" y="535" width="1800" height="36" fill="#0b0b0b"/><g fill="#c9ff2e"><rect x="110" y="545" width="90" height="8"/><rect x="480" y="545" width="90" height="8"/><rect x="850" y="545" width="90" height="8"/><rect x="1220" y="545" width="90" height="8"/><rect x="1580" y="545" width="90" height="8"/></g></g>
</svg>