<svg width="700" height="520" viewBox="0 0 700 520" xmlns="http://www.w3.org/2000/svg">
<defs><linearGradient id="boot" x1="0" x2="1"><stop stop-color="#111"/><stop offset=".45" stop-color="#333"/><stop offset="1" stop-color="#050505"/></linearGradient><filter id="g"><feGaussianBlur stdDeviation="8" result="b"/><feMerge><feMergeNode in="b"/><feMergeNode in="SourceGraphic"/></feMerge></filter></defs>
<rect width="700" height="520" fill="none"/>
<ellipse cx="350" cy="390" rx="230" ry="55" fill="#b8ff22" opacity=".16" filter="url(#g)"/>
<path d="M132 298 C190 170 323 108 454 138 C532 156 594 219 610 292 C497 314 349 328 132 298Z" fill="url(#boot)" stroke="#b8ff22" stroke-width="5"/>
<path d="M176 283 C280 292 414 289 570 270" stroke="#b8ff22" stroke-width="16" stroke-linecap="round"/>
<path d="M255 218 L440 204 M235 250 L480 238" stroke="#b8ff22" stroke-width="13" stroke-linecap="round" opacity=".9"/>
<path d="M418 138 C391 190 387 225 397 282" stroke="#fff" stroke-opacity=".2" stroke-width="18"/>
<g fill="#b8ff22"><circle cx="230" cy="320" r="13"/><circle cx="320" cy="326" r="13"/><circle cx="420" cy="323" r="13"/><circle cx="520" cy="310" r="13"/></g>
<path d="M290 158 C320 186 350 203 400 210" fill="none" stroke="#fff" stroke-opacity=".22" stroke-width="6"/>
</svg>