<svg xmlns="http://www.w3.org/2000/svg" viewBox="0 0 760 690" role="img" aria-labelledby="title desc">
<title id="title">PitchIQ AcademyHeroPanel MVP artwork</title>
<desc id="desc">Youth footballer silhouette scanning left and right with incoming football and neon pitch grid.</desc>
<defs>
<radialGradient id="bg" cx="50%" cy="43%" r="70%"><stop offset="0" stop-color="#d7ff2e" stop-opacity=".30"/><stop offset=".45" stop-color="#31f79a" stop-opacity=".10"/><stop offset="1" stop-color="#010806"/></radialGradient>
<linearGradient id="neon" x1="0" x2="1"><stop stop-color="#d7ff2e"/><stop offset="1" stop-color="#31f79a"/></linearGradient>
<filter id="glow" x="-50%" y="-50%" width="200%" height="200%"><feGaussianBlur stdDeviation="6" result="b"/><feMerge><feMergeNode in="b"/><feMergeNode in="SourceGraphic"/></feMerge></filter>
<filter id="soft" x="-40%" y="-40%" width="180%" height="180%"><feGaussianBlur stdDeviation="2.5" result="b"/><feMerge><feMergeNode in="b"/><feMergeNode in="SourceGraphic"/></feMerge></filter>
</defs>
<rect width="760" height="690" rx="44" fill="#010806"/>
<rect x="1" y="1" width="758" height="688" rx="43" fill="url(#bg)"/>
<g opacity=".55" fill="#d7ff2e"><circle cx="98" cy="96" r="2"/><circle cx="142" cy="126" r="1.5"/><circle cx="251" cy="98" r="1.3"/><circle cx="565" cy="88" r="2"/><circle cx="645" cy="152" r="1.6"/><circle cx="608" cy="250" r="1.4"/><circle cx="107" cy="258" r="1.5"/><circle cx="699" cy="356" r="2"/><circle cx="70" cy="390" r="1.4"/></g>
<g stroke="#d7ff2e" stroke-opacity=".28" fill="none"><path d="M24 590h712"/><path d="M52 540h656"/><path d="M88 492h584"/><path d="M130 450h500"/><path d="M380 450v140"/><path d="M210 590c35-74 305-74 340 0"/><path d="M278 590c20-38 184-38 204 0"/><path d="M302 540h156v50H302z" opacity=".55"/><path d="M342 540h76v25h-76z" opacity=".45"/><path d="M90 450l-42 140M670 450l42 140M160 450l-18 140M600 450l18 140" opacity=".35"/></g>
<g class="left-scan" stroke="#d7ff2e" stroke-width="3" stroke-linecap="round" fill="none" filter="url(#glow)"><path d="M360 260C250 248 150 292 72 404" stroke-dasharray="9 13"/><path d="M352 322C245 318 167 376 78 494" stroke-dasharray="8 12" opacity=".85"/><path d="M92 298l-48 52 64 22"/><path d="M94 492l-48 52 64 22"/><path d="M125 230q95 70 210 72" opacity=".4"/><circle cx="125" cy="354" r="7" fill="#d7ff2e"/><circle cx="215" cy="300" r="5" fill="#d7ff2e"/><circle cx="232" cy="418" r="5" fill="#d7ff2e"/></g>
<g class="right-scan" stroke="#d7ff2e" stroke-width="3" stroke-linecap="round" fill="none" filter="url(#glow)"><path d="M400 260C510 248 610 292 688 404" stroke-dasharray="9 13"/><path d="M408 322C515 318 593 376 682 494" stroke-dasharray="8 12" opacity=".85"/><path d="M668 298l48 52-64 22"/><path d="M666 492l48 52-64 22"/><path d="M635 230q-95 70-210 72" opacity=".4"/><circle cx="635" cy="354" r="7" fill="#d7ff2e"/><circle cx="545" cy="300" r="5" fill="#d7ff2e"/><circle cx="528" cy="418" r="5" fill="#d7ff2e"/></g>
<g class="incoming-ball" transform="translate(590 120)" filter="url(#glow)"><path d="M-30 22q-88 20-168 96" stroke="#d7ff2e" stroke-width="3" stroke-linecap="round" stroke-dasharray="14 15" opacity=".62"/><circle r="45" fill="#eaffd8" stroke="#d7ff2e" stroke-width="5"/><path d="M0-27l25 18-9 31h-32l-9-31z" fill="#111911"/><path d="M0-44v17M41-12l-16 3M25 38l-9-16M-25 38l9-16M-41-12l16 3" stroke="#111911" stroke-width="5" opacity=".85"/></g>
<g class="player" filter="url(#glow)"><path d="M374 215q42 0 64 38q14 23 6 58q-13 78-42 192H286q24-129 15-198q-6-48 25-72q18-16 48-18z" fill="#020907" stroke="url(#neon)" stroke-width="4"/>
<path d="M337 196q13-52 63-48q46 5 55 52q-26 34-65 36q-34-3-53-40z" fill="#020907" stroke="#d7ff2e" stroke-width="3"/>
<path d="M354 160q44-38 103 6q-17-55-84-51q-50 6-72 54q27-16 53-9z" fill="#010605" stroke="#d7ff2e" stroke-opacity=".55" stroke-width="2"/>
<path d="M438 235q58 43 95 128" stroke="#d7ff2e" stroke-width="16" stroke-linecap="round" opacity=".34"/>
<path d="M315 282q-68 62-105 143" stroke="#d7ff2e" stroke-width="16" stroke-linecap="round" opacity=".34"/>
<path d="M330 501l-52 135M401 501l70 135" stroke="#020907" stroke-width="45" stroke-linecap="round"/>
<path d="M330 501l-52 135M401 501l70 135" stroke="#d7ff2e" stroke-width="5" stroke-linecap="round" opacity=".70"/>
<path d="M312 258q40 36 119 20" stroke="#d7ff2e" stroke-width="3" opacity=".68"/></g>
<g fill="#d7ff2e" font-family="Inter,Arial,sans-serif" font-size="22" font-weight="900" letter-spacing="2" opacity=".95"><text x="54" y="430">SCANNING</text><text x="92" y="457">LEFT</text><text x="576" y="430">SCANNING</text><text x="606" y="457">RIGHT</text></g>
<rect x="1" y="1" width="758" height="688" rx="43" fill="none" stroke="#d7ff2e" stroke-opacity=".25" stroke-width="2"/>
</svg>
