<svg width="760" height="920" viewBox="0 0 760 920" xmlns="http://www.w3.org/2000/svg">
<defs><radialGradient id="glow" cx="50%" cy="45%" r="57%"><stop stop-color="#d6ff2f" stop-opacity=".25"/><stop offset="1" stop-color="#000" stop-opacity="0"/></radialGradient></defs>
<circle cx="380" cy="450" r="345" fill="url(#glow)"/>
<circle cx="380" cy="210" r="84" fill="#e3b083"/><path d="M286 200 C302 105 470 92 489 205 C438 149 342 150 286 200Z" fill="#23140b"/>
<path d="M268 365 C305 300 455 300 492 365 L560 770 C475 835 285 835 200 770 Z" fill="#06120d" stroke="#d6ff2f" stroke-width="8"/>
<text x="380" y="505" text-anchor="middle" font-family="Arial Black,Arial" font-size="98" fill="#d6ff2f">10</text>
<text x="380" y="600" text-anchor="middle" font-family="Arial Black,Arial" font-size="55" fill="#fff">PITCHIQ</text>
<path d="M268 375 L150 620" stroke="#06120d" stroke-width="58" stroke-linecap="round"/><path d="M492 375 L612 620" stroke="#06120d" stroke-width="58" stroke-linecap="round"/>
<path d="M268 375 L150 620" stroke="#d6ff2f" stroke-width="7" stroke-linecap="round"/><path d="M492 375 L612 620" stroke="#d6ff2f" stroke-width="7" stroke-linecap="round"/>
<circle cx="348" cy="230" r="8" fill="#111"/><circle cx="412" cy="230" r="8" fill="#111"/><path d="M348 270 Q380 292 412 270" fill="none" stroke="#7a3f2f" stroke-width="8" stroke-linecap="round"/>
</svg>