<svg width="560" height="740" viewBox="0 0 560 740" xmlns="http://www.w3.org/2000/svg"><defs><linearGradient id="c" x1="0" y1="0" x2="1" y2="1"><stop stop-color="#183622"/><stop offset=".5" stop-color="#07110D"/><stop offset="1" stop-color="#D7FF2E"/></linearGradient><radialGradient id="r"><stop stop-color="#D7FF2E" stop-opacity=".28"/><stop offset="1" stop-opacity="0"/></radialGradient></defs><path d="M72 24 L488 24 L532 120 L494 680 L280 724 L66 680 L28 120 Z" fill="url(#c)" stroke="#D7FF2E" stroke-width="7"/><circle cx="285" cy="320" r="205" fill="url(#r)"/><circle cx="285" cy="205" r="64" fill="#E0AD82"/><path d="M218 198 C232 110 350 110 362 205 C320 158 260 156 218 198Z" fill="#24140D"/><path d="M202 325 C235 275 335 275 368 325 L420 570 C345 625 225 625 150 570 Z" fill="#06120D" stroke="#D7FF2E" stroke-width="6"/><text x="285" y="455" text-anchor="middle" font-family="Arial Black" font-size="88" fill="#D7FF2E">10</text><text x="285" y="540" text-anchor="middle" font-family="Arial Black" font-size="42" fill="#fff">PITCHIQ</text><text x="92" y="104" font-family="Arial Black" font-size="66" fill="#fff">72</text></svg>