<svg width="520" height="720" viewBox="0 0 520 720" xmlns="http://www.w3.org/2000/svg"><defs><linearGradient id="c" x1="0" y1="0" x2="1" y2="1"><stop stop-color="#172c1e"/><stop offset=".5" stop-color="#08110d"/><stop offset="1" stop-color="#d8ff2f"/></linearGradient><radialGradient id="g" cx="55%" cy="42%" r="60%"><stop stop-color="#d8ff2f" stop-opacity=".25"/><stop offset="1" stop-opacity="0"/></radialGradient></defs><path d="M72 25 L448 25 L490 115 L455 665 L260 705 L65 665 L30 115 Z" fill="url(#c)" stroke="#d8ff2f" stroke-width="6"/><circle cx="260" cy="295" r="190" fill="url(#g)"/><circle cx="260" cy="185" r="62" fill="#e0ad82"/><path d="M194 178 C210 95 318 98 328 186 C288 148 235 146 194 178Z" fill="#24140d"/><path d="M184 300 C214 255 306 255 336 300 L384 540 C318 590 202 590 136 540 Z" fill="#06120d" stroke="#d8ff2f" stroke-width="5"/><text x="260" y="426" text-anchor="middle" font-family="Arial Black" font-size="84" fill="#d8ff2f">10</text><text x="260" y="505" text-anchor="middle" font-family="Arial Black" font-size="40" fill="#fff">PITCHIQ</text><text x="90" y="100" font-family="Arial Black" font-size="62" fill="#fff">72</text><text x="90" y="135" font-family="Arial Black" font-size="24" fill="#d8ff2f">OVR</text><text x="260" y="640" text-anchor="middle" font-family="Arial Black" font-size="42" fill="#fff">PLAYER</text></svg>